<svg xmlns="http://www.w3.org/2000/svg" viewBox="0 0 242.66 243.31"><g id="Layer_2" data-name="Layer 2"><g id="Layer_1-2" data-name="Layer 1"><path d="M160.24,202.94c-4.55,10.39-8.73,20.3-13.2,30.08-4.37,9.55-14.14,13.16-22.3,7.78a19.9,19.9,0,0,1-7.16-9.14q-24.42-64.9-48.28-130c-5.8-15.8,3.16-31.14,19.46-33.19A26.63,26.63,0,0,1,100.82,70q65.3,23.94,130.44,48.3c7.28,2.71,11.49,8.15,11.4,14.79-.11,7.32-4,12.13-10.57,15-9.69,4.3-19.37,8.66-29.43,13.16,1,1.12,1.69,2,2.48,2.8,8.36,8.39,16.78,16.73,25.1,25.16,10.06,10.17,10,22.6,0,32.81q-4.47,4.56-9,9c-10,9.81-22.54,9.86-32.55,0-8.45-8.31-16.76-16.75-25.14-25.12C162.59,205.1,161.61,204.23,160.24,202.94Zm-27.85,22.8a13.67,13.67,0,0,0,1-1.34l15.81-36.15c3.84-8.79,9.39-9.89,16.11-3.18q17.09,17.07,34.16,34.15c4.28,4.28,6.72,4.24,11.08-.06,2.55-2.52,5.08-5.07,7.62-7.62,4.67-4.7,4.69-7,.06-11.65-11.46-11.49-23-22.93-34.41-34.47-5.28-5.33-4.2-11.25,2.58-14.37,6.63-3.06,13.34-6,20-8.93l19.12-8.6c-1.92-.81-3.07-1.34-4.25-1.78q-58.08-21.57-116.18-43.1c-4-1.48-8-3-12-4.14-3.7-1-7.06.57-8.22,3.87a14.53,14.53,0,0,0,.1,9.1c13.78,37.67,27.79,75.26,41.75,112.86Z"/><path d="M78,24c0-5.06-.09-10.12,0-15.17C78.19,3.42,81.21.1,85.83,0s8,3.28,8.16,8.51q.32,15.36,0,30.74c-.1,5.26-3.58,8.69-8,8.66-4.7,0-7.79-3.52-7.9-9.14C78,33.85,78,28.92,78,24Z"/><path d="M24,78c4.92,0,9.84-.09,14.76,0,5.66.13,9.09,3.21,9.1,7.92s-3.44,8-9,8c-9.84.16-19.68.14-29.53,0C3.48,93.92-.11,90.57,0,85.8S3.54,78.22,9.26,78c.27,0,.54,0,.8,0Z"/><path d="M56.18,120.25c-1.55,2.8-2.26,5.06-3.73,6.58q-10.66,11.05-21.7,21.76c-3.75,3.67-8.51,3.73-11.75.53s-3.18-8,.47-11.76c7.15-7.33,14.45-14.52,21.73-21.73,2.58-2.55,5.92-3.81,9.06-1.92C52.6,115.12,54.12,117.89,56.18,120.25Z"/><path d="M148.17,11.55c2.35,1.91,4.83,3.25,6.33,5.31,2,2.73,1.37,5.95-.75,8.51s-4.56,4.83-6.9,7.19c-5.36,5.37-10.67,10.79-16.15,16-2.86,2.73-6.26,3.42-9.85,1.19a7.2,7.2,0,0,1-3.42-8.56,11.39,11.39,0,0,1,2.84-4.66c6.88-7,13.81-14,20.91-20.86C142.88,14.06,145.33,13.19,148.17,11.55Z"/><path d="M33.4,25.54c2.88,1.71,5.2,2.57,6.84,4.15,7.19,6.92,14.24,14,21.21,21.13,3.9,4,4,8.75.61,12.06-3.22,3.13-8,3-11.78-.64C43,55.18,35.94,48,28.81,40.8c-2.68-2.7-4-6.14-2-9.4C28.21,29.05,31,27.55,33.4,25.54Z"/></g></g></svg>