<svg width="70" height="20" viewBox="0 0 70 20" fill="none" xmlns="http://www.w3.org/2000/svg">
<path d="M15.8877 9.99984L6.32583 19.6126C5.81253 20.1287 4.98287 20.1287 4.46957 19.6126L0.384982 15.5063C-0.128327 14.9903 -0.128327 14.1562 0.384982 13.6401L9.94685 4.02734L15.8877 9.99984Z" fill="url(#paint0_linear)"/>
<path d="M10.625 8.6821L2.11161 17.2428L0.603516 15.7267L9.11688 7.16797L10.625 8.6821Z" fill="white" fill-opacity="0.2"/>
<path d="M8.38305 14.3982L0.384982 6.35753C-0.128327 5.84149 -0.128327 5.00742 0.384982 4.49138L4.46957 0.387032C4.98288 -0.129011 5.81253 -0.129011 6.32583 0.387032L14.3239 8.42771L8.38305 14.3982Z" fill="url(#paint1_linear)"/>
<path d="M17.2526 13.9608L11.63 19.6133C11.1167 20.1293 10.2871 20.1293 9.77377 19.6133L5.68918 15.5069C5.17587 14.9909 5.17587 14.1568 5.68918 13.6408L11.3117 7.98828L17.2526 13.9608Z" fill="url(#paint2_linear)"/>
<path d="M15.9292 8.6821L7.41581 17.2408L5.90771 15.7267L14.4211 7.16797L15.9292 8.6821Z" fill="white" fill-opacity="0.1"/>
<path d="M18.6909 7.48644L11.6399 0.397845C11.1226 -0.122198 10.283 -0.122198 9.76369 0.397845L5.699 4.48419C5.18171 5.00423 5.18171 5.8483 5.699 6.37035L12.1631 12.8689C13.8682 14.583 13.8682 17.3633 12.1631 19.0774L15.2509 15.9731L18.6909 12.5149C20.0716 11.1267 20.0716 8.87656 18.6909 7.48644Z" fill="url(#paint3_linear)"/>
<path d="M26.5182 9.70829H30.6068V13.4346C29.7055 14.4167 28.3725 14.9907 27.0017 14.9907C24.3874 14.9907 22.1909 12.9106 22.1909 10.4483C22.1909 7.98614 24.3874 5.91797 27.0017 5.91797C28.3725 5.91797 29.7055 6.49202 30.6068 7.4621L28.7923 9.05623C28.3606 8.49418 27.7 8.16216 27.0017 8.16216C25.7702 8.16216 24.7296 9.20824 24.7296 10.4463C24.7296 11.6965 25.7702 12.7425 27.0017 12.7425C27.4334 12.7425 27.8512 12.6145 28.2213 12.3845V11.5304H26.5202V9.70829H26.5182Z" fill="#004B8D"/>
<path d="M31.3809 11.5322C31.3809 9.65607 33.07 8.08594 35.0874 8.08594C37.0929 8.08594 38.7821 9.65607 38.7821 11.5322C38.7821 13.4084 37.0929 14.9905 35.0874 14.9905C33.07 14.9905 31.3809 13.4084 31.3809 11.5322ZM36.498 11.5322C36.498 10.7662 35.8514 10.1281 35.0894 10.1281C34.3155 10.1281 33.6669 10.7662 33.6669 11.5322C33.6669 12.2983 34.3135 12.9483 35.0894 12.9483C35.8494 12.9483 36.498 12.2983 36.498 11.5322Z" fill="#004B8D"/>
<path d="M39.7471 6.07031H42.2102V9.5286L45.1428 6.07031H48.0495L44.8264 9.73262L48.3042 14.837H45.3596L43.1134 11.5188L42.2121 12.5149V14.837H39.7491V6.07031H39.7471Z" fill="#004B8D"/>
<path d="M48.1528 8.24023H50.5005L51.4774 11.5325L52.4423 8.24023H54.4478L55.4247 11.5325L56.3896 8.24023H58.7373L56.505 14.8368H54.3344L53.4451 11.4425L52.5816 14.8368H50.411L48.1528 8.24023Z" fill="#004B8D"/>
<path d="M59.3623 6.26182C59.3623 5.59777 59.9214 5.01172 60.6317 5.01172C61.3181 5.01172 61.8751 5.59977 61.8751 6.26182C61.8751 6.95188 61.3161 7.53793 60.6317 7.53793C59.9214 7.53793 59.3623 6.94988 59.3623 6.26182ZM59.3882 8.23999H61.8373V14.8385H59.3882V8.23999Z" fill="#004B8D"/>
<path d="M70.0005 14.837H67.2588L66.0532 12.6549L65.52 13.3189V14.837H63.0708V6.07031H65.52V10.5627L67.2091 8.24049H69.9507L67.6528 11.0867L70.0005 14.837Z" fill="#004B8D"/>
<defs>
<linearGradient id="paint0_linear" x1="0.236978" y1="19.7625" x2="6.11241" y2="13.9182" gradientUnits="userSpaceOnUse">
<stop stop-color="#EDDE5D"/>
<stop offset="1" stop-color="#F09819"/>
</linearGradient>
<linearGradient id="paint1_linear" x1="-0.925169" y1="-0.930098" x2="12.3146" y2="12.2395" gradientUnits="userSpaceOnUse">
<stop stop-color="#EDCE4D"/>
<stop offset="1" stop-color="#F09819"/>
</linearGradient>
<linearGradient id="paint2_linear" x1="22.6255" y1="2.58817" x2="8.11067" y2="17.026" gradientUnits="userSpaceOnUse">
<stop offset="0.1617" stop-color="#000428"/>
<stop offset="1" stop-color="#004B8D"/>
</linearGradient>
<linearGradient id="paint3_linear" x1="-14.9381" y1="-17.2449" x2="14.5001" y2="12.0374" gradientUnits="userSpaceOnUse">
<stop offset="0.1617" stop-color="#000428"/>
<stop offset="1" stop-color="#004B8D"/>
</linearGradient>
</defs>
</svg>
